<svg xmlns="http://www.w3.org/2000/svg" width="256" height="256" viewBox="0 0 256 256">
  <defs>
    <linearGradient id="bg" x1="45.1" y1="203.1" x2="210.9" y2="27.7" gradientUnits="userSpaceOnUse">
      <stop offset="0" stop-color="#0b2636"/>
      <stop offset="0.55" stop-color="#1d4857"/>
      <stop offset="1" stop-color="#36646f"/>
    </linearGradient>
  </defs>
  <path d="M118.25 15.29 Q129.62 9.00 140.91 15.44 L222.31 61.86 Q233.60 68.30 233.60 81.29 L233.60 169.02 Q233.60 182.02 222.53 188.83 L139.07 240.19 Q128.00 247.00 116.93 240.19 L33.47 188.83 Q22.40 182.02 22.40 169.02 L22.40 81.29 Q22.40 68.30 33.78 62.01 Z" fill="url(#bg)"/>
  <path d="M147.49 202.59 L142.62 201.78 L137.48 198.26 L134.91 192.58 L136.39 183.64 L130.44 178.50 L124.75 178.50 L119.48 183.64 L121.09 190.95 L120.15 195.01 L117.44 199.29 L113.38 201.78 L105.26 201.78 L99.57 197.00 L97.40 190.14 L93.88 187.44 L64.64 170.38 L54.89 171.04 L51.65 170.10 L46.50 164.15 L45.69 158.46 L48.99 151.96 L56.52 148.32 L63.02 149.73 L76.09 133.28 L74.39 131.39 L54.89 120.55 L51.38 117.03 L51.04 101.60 L48.13 99.16 L45.56 91.85 L47.32 86.17 L53.27 81.03 L57.33 80.40 L63.83 81.56 L96.32 62.07 L100.38 53.32 L107.69 49.35 L115.00 50.97 L119.33 55.30 L120.95 60.99 L119.61 68.30 L125.56 73.44 L130.44 73.44 L136.38 67.48 L135.04 64.24 L134.91 58.55 L137.34 53.68 L141.81 50.16 L148.31 49.35 L152.37 50.97 L155.62 54.13 L157.79 60.17 L159.68 62.07 L192.17 81.55 L197.86 80.08 L202.73 81.03 L206.79 84.19 L209.50 88.60 L209.50 94.29 L205.52 100.79 L198.67 103.49 L191.36 101.53 L173.52 118.66 L204.57 119.47 L204.77 149.53 L209.63 158.46 L209.50 162.52 L207.87 165.77 L205.98 168.43 L201.92 170.91 L191.36 170.38 L164.55 185.81 L158.05 190.59 L156.70 196.64 L153.18 200.29 L147.49 202.59 Z M69.91 87.79 L99.57 70.19 L100.64 68.30 L98.97 65.86 L96.32 66.40 L66.28 84.54 L68.35 87.79 L69.91 87.79 Z M187.51 87.79 L188.99 84.54 L188.11 83.46 L158.05 65.60 L156.16 66.67 L155.36 69.11 L157.24 71.00 L184.86 87.25 L187.51 87.79 Z M116.17 180.39 L121.09 173.89 L121.09 78.04 L115.00 71.16 L108.24 73.98 L104.05 94.29 L104.18 95.91 L109.32 100.43 L111.21 104.04 L110.40 112.16 L107.24 116.22 L103.63 118.11 L99.57 119.06 L94.57 117.85 L89.56 125.16 L106.88 135.45 L111.21 140.59 L112.17 178.77 L113.38 180.66 L116.17 180.39 Z M142.22 180.39 L145.87 179.85 L147.76 177.14 L157.51 140.59 L158.13 137.34 L152.10 130.03 L151.97 123.53 L152.91 120.28 L158.31 114.60 L146.95 73.98 L140.18 71.29 L136.12 75.25 L134.91 78.04 L134.91 173.89 L139.83 180.39 L142.22 180.39 Z M90.17 100.79 L93.88 97.27 L98.97 95.10 L103.63 72.97 L69.31 92.67 L71.95 95.37 L88.20 101.06 L90.17 100.79 Z M169.78 115.41 L187.30 98.71 L186.75 93.48 L151.56 72.38 L162.66 113.78 L163.74 114.87 L169.78 115.41 Z M129.97 173.89 L130.84 167.40 L130.02 79.67 L129.62 78.65 L126.38 78.46 L125.17 79.67 L125.17 172.27 L126.38 174.16 L129.97 173.89 Z M85.30 121.91 L90.71 114.60 L88.74 110.54 L88.41 106.47 L73.58 100.52 L66.72 99.16 L64.37 101.60 L64.64 110.89 L80.89 120.55 L85.30 121.91 Z M104.59 180.39 L107.69 179.79 L108.09 178.77 L107.15 141.40 L104.44 138.70 L60.58 113.19 L59.98 103.23 L55.71 103.01 L55.31 113.78 L57.79 117.03 L102.27 143.84 L103.22 147.09 L103.23 178.77 L104.59 180.39 Z M200.50 148.71 L200.29 123.32 L174.32 123.53 L174.90 127.59 L175.92 127.99 L195.42 128.19 L196.02 148.71 L200.50 148.71 Z M191.72 149.53 L191.36 132.26 L173.52 132.47 L190.55 149.92 L191.72 149.53 Z M98.96 175.52 L99.16 151.15 L98.21 146.28 L80.89 135.64 L67.62 151.15 L66.82 153.59 L68.44 157.65 L97.95 175.78 L98.96 175.52 Z M153.57 177.96 L186.70 158.46 L187.30 153.23 L169.43 136.27 L162.66 138.97 L152.11 177.14 L152.37 178.15 L153.57 177.96 Z M99.92 185.27 L101.40 182.02 L98.76 180.12 L72.76 164.69 L69.52 163.07 L67.62 164.15 L66.82 166.58 L70.33 169.29 L96.32 184.72 L99.92 185.27 Z M158.41 185.27 L186.48 168.48 L188.38 166.58 L187.51 163.33 L183.24 164.69 L154.60 182.02 L156.08 185.27 L158.41 185.27 Z" fill="#99c3c0" fill-rule="evenodd"/>
  <g fill="#99c3c0">
    <circle cx="108.91" cy="61.39" r="12.59"/>
    <circle cx="146.60" cy="61.39" r="12.59"/>
    <circle cx="197.94" cy="91.77" r="12.59"/>
    <circle cx="57.82" cy="92.18" r="12.59"/>
    <circle cx="99.73" cy="106.72" r="12.59"/>
    <circle cx="163.50" cy="126.05" r="12.59"/>
    <circle cx="198.10" cy="159.76" r="12.59"/>
    <circle cx="57.49" cy="159.92" r="12.59"/>
    <circle cx="146.76" cy="190.55" r="12.59"/>
    <circle cx="109.32" cy="190.79" r="12.59"/>
  </g>
</svg>