<svg xmlns="http://www.w3.org/2000/svg" viewBox="0 0 32 32" width="32" height="32" role="img" aria-label="Be Civic">
  <rect width="32" height="32" rx="3.5" ry="3.5" fill="#0a0a0a"/>
  <path fill="#fae042" transform="translate(-0.1920 23.5) scale(0.011000 -0.011000)" d="M670 -30Q509 -30 401.0 45.0Q293 120 238.5 249.0Q184 378 184 540Q184 702 238.0 831.0Q292 960 397.0 1035.0Q502 1110 656 1110Q811 1110 926.0 1036.0Q1041 962 1104.5 833.5Q1168 705 1168 540Q1168 378 1105.5 249.0Q1043 120 931.0 45.0Q819 -30 670 -30ZM138 0V1440H412V740H378V0ZM626 212Q714 212 770.0 256.0Q826 300 853.0 374.5Q880 449 880 540Q880 630 852.0 704.5Q824 779 765.5 823.5Q707 868 616 868Q531 868 478.5 827.0Q426 786 402.0 712.0Q378 638 378 540Q378 442 402.0 368.0Q426 294 480.5 253.0Q535 212 626 212Z"/>
  <path fill="#fae042" transform="translate(12.6560 23.5) scale(0.011000 -0.011000)" d="M642 -30Q476 -30 349.5 41.5Q223 113 151.5 238.5Q80 364 80 526Q80 703 150.0 834.0Q220 965 343.0 1037.5Q466 1110 626 1110Q796 1110 915.0 1030.0Q1034 950 1091.0 805.0Q1148 660 1131 464H862V564Q862 729 809.5 801.5Q757 874 638 874Q499 874 433.5 789.5Q368 705 368 540Q368 389 433.5 306.5Q499 224 626 224Q706 224 763.0 259.0Q820 294 850 360L1122 282Q1061 134 929.5 52.0Q798 -30 642 -30ZM284 464V666H1000V464Z"/>
  <path fill="#ed2939" transform="translate(25.1520 23.5) scale(0.011000 -0.011000)" d="M184 0V272H456V0Z"/>
</svg>
